<?xml version="1.0" standalone="no"?>
<svg xmlns="http://www.w3.org/2000/svg" viewBox="0 0 180.469 36" width="180.469" height="36"><g fill="#e106da" color="#e106da" transform="translate(0 4) scale(0.2916667)"><svg width="96.0" height="96.0" x="0.0" y="0.0" viewBox="0 0 96 96"><path d="M6.732,53.943c-0.836,0-1.616-0.527-1.896-1.363c-2.112-6.32-0.92-23.072,16.388-31.688  c5.26-2.624,10.356-3.952,15.148-3.952c12.948,0,20.388,9.364,23.964,13.86c0.632,0.796,0.725,2.132,0,2.852  c-3.172,3.176-7.408,6.168-12.924,9.144c-9.84,5.308-20.18,7.101-28.488,8.536c-4.492,0.775-8.372,1.443-11.56,2.508  C7.152,53.916,6.936,53.943,6.732,53.943L6.732,53.943z"></path><path d="M92.744,21.856c-3.439-4.484-8.296-7.276-12.672-7.276c-2.564,0-6.225,0.92-9.092,5.312  c-1.496,2.284-2.309,4.644-3.092,6.92C65.84,32.74,63.725,38.876,49.24,46.688c-9.264,4.996-18.828,6.656-27.264,8.121  C11.88,56.561,3.16,58.064,0.152,65.3c-0.276,0.66-0.18,1.416,0.248,1.98c0.428,0.571,1.124,0.868,1.84,0.771  c2.668-0.323,6.132,0.164,9.736,0.868c-0.488,0.584-1.044,1.145-1.564,1.672c-1.52,1.54-3.096,3.133-2.628,5.168  c0.432,1.896,2.416,2.797,3.864,3.313c1.596,0.568,3.372,0.867,5.132,0.867c4.964,0,8.864-2.315,10.596-6.155  c6.816,1.147,13.948,1.252,20.172,1.252l6.556-0.024c0.265,0.225,0.713,0.664,1.057,1c2.016,2.024,5.392,5.404,10.884,5.404  c0.517,0,1.056-0.032,1.664-0.104c2.748-0.408,5.403-1.068,6.296-3.148c0.908-2.112-0.492-4.092-2.104-6.389  c-1.924-2.739-4.32-6.127-3.992-10.611c0.783-1.588,1.472-3.296,2.184-5.068c1.916-4.76,3.9-9.684,8.48-14.052  c1.724,1.372,4.088,2.196,6.52,2.196l0,0c1.756,0,3.504-0.408,5.18-1.2c2.496-1.172,4.416-3.868,5.265-7.388  C96.704,30.824,95.66,25.668,92.744,21.856L92.744,21.856z M81.592,31.024c-1.104,0-2-0.896-2-2s0.896-2,2-2c1.1,0,2,0.896,2,2  S82.7,31.024,81.592,31.024z"></path></svg></g><path fill="#e106da" fill-rule="nonzero" d="M0 6.77L0 6.77Q0 6.32 0.41 6.08Q0.82 5.84 1.58 5.84L1.58 5.84Q1.76 5.84 1.90 5.88Q2.04 5.93 2.15 6.06Q2.26 6.20 2.36 6.43Q2.45 6.67 2.54 7.03L2.54 7.03Q2.64 7.44 2.73 7.44L2.73 7.44Q2.81 7.44 2.93 7.10L2.93 7.10Q3.14 6.43 3.49 5.94Q3.83 5.44 4.27 5.10Q4.70 4.77 5.21 4.61Q5.72 4.44 6.28 4.44L6.28 4.44Q7.42 4.44 8.40 4.87Q9.39 5.30 10.10 6.05Q10.82 6.81 11.23 7.83Q11.64 8.86 11.64 10.05L11.64 10.05Q11.64 11.32 11.20 12.40Q10.76 13.48 9.97 14.26Q9.19 15.04 8.10 15.47Q7.02 15.91 5.73 15.91L5.73 15.91L5.13 15.89Q4.61 15.89 4.61 16.49L4.61 16.49L5.20 21.87Q5.19 22.07 5.07 22.24Q4.95 22.41 4.74 22.54Q4.54 22.66 4.26 22.73Q3.98 22.80 3.69 22.80L3.69 22.80Q2.85 22.80 2.78 22.25L2.78 22.25Q2.53 20.12 2.23 18.20Q1.93 16.28 1.62 14.62Q1.31 12.96 1.02 11.60Q0.73 10.24 0.50 9.23Q0.27 8.23 0.13 7.59Q0 6.96 0 6.77ZM3.81 9.87L3.81 9.87Q3.81 10.63 3.87 11.37Q3.93 12.12 4.05 12.98L4.05 12.98Q4.13 13.51 4.63 13.58L4.63 13.58Q4.93 13.65 5.31 13.72Q5.70 13.78 5.95 13.78L5.95 13.78Q6.70 13.78 7.31 13.56Q7.92 13.34 8.36 12.92Q8.79 12.50 9.02 11.93Q9.26 11.36 9.26 10.65L9.26 10.65Q9.26 9.80 9.02 9.05Q8.79 8.31 8.38 7.76Q7.98 7.21 7.44 6.89Q6.89 6.57 6.26 6.57L6.26 6.57Q5.71 6.57 5.26 6.81Q4.80 7.05 4.48 7.48Q4.16 7.91 3.98 8.52Q3.81 9.13 3.81 9.87ZM14.71 3L14.71 3Q14.37 3 14.07 2.90Q13.77 2.80 13.55 2.62Q13.34 2.44 13.21 2.19Q13.08 1.95 13.08 1.65L13.08 1.65Q13.08 1.16 13.47 0.86Q13.86 0.55 14.52 0.55L14.52 0.55Q14.82 0.55 15.11 0.66Q15.39 0.77 15.60 0.96Q15.82 1.15 15.95 1.40Q16.08 1.65 16.08 1.92L16.08 1.92Q16.08 2.43 15.71 2.71Q15.34 3 14.71 3ZM13.10 6.57L13.10 6.57Q13.10 6.16 13.46 5.90Q13.82 5.64 14.40 5.64L14.40 5.64Q15.46 5.64 15.53 6.36L15.53 6.36Q15.57 6.87 15.63 7.50Q15.68 8.13 15.73 8.84Q15.79 9.55 15.83 10.31Q15.87 11.06 15.90 11.79Q15.94 12.53 15.96 13.21Q15.98 13.89 15.98 14.45L15.98 14.45Q15.98 15.04 15.57 15.33Q15.15 15.62 14.36 15.62L14.36 15.62Q13.99 15.62 13.79 15.45Q13.58 15.28 13.58 14.95L13.58 14.95Q13.58 13.34 13.51 11.92Q13.43 10.51 13.34 9.41Q13.25 8.31 13.18 7.58Q13.10 6.84 13.10 6.57ZM18.35 5.50L18.35 5.50Q18.35 5.32 18.50 5.15Q18.66 4.98 18.90 4.85Q19.15 4.71 19.46 4.62Q19.77 4.54 20.09 4.54L20.09 4.54Q20.26 4.54 20.38 4.63Q20.51 4.72 20.60 4.99Q20.70 5.25 20.77 5.72Q20.85 6.20 20.92 6.96L20.92 6.96Q20.96 7.20 21.01 7.32Q21.05 7.44 21.12 7.44L21.12 7.44Q21.22 7.44 21.33 7.08L21.33 7.08Q22.18 4.61 23.80 4.61L23.80 4.61Q24.55 4.61 25.17 5.07Q25.78 5.54 26.31 6.60Q26.85 7.66 27.33 9.39Q27.81 11.12 28.29 13.65L28.29 13.65Q28.31 13.78 28.32 13.89Q28.34 13.99 28.34 14.09L28.34 14.09Q28.34 14.36 28.21 14.55Q28.09 14.74 27.89 14.87Q27.69 14.99 27.45 15.05Q27.20 15.12 26.95 15.12L26.95 15.12Q26.46 15.12 26.24 15.01Q26.03 14.91 25.97 14.61L25.97 14.61Q25.63 12.83 25.31 11.45Q24.98 10.07 24.67 9.12Q24.36 8.18 24.06 7.69Q23.75 7.20 23.45 7.20L23.45 7.20Q23.14 7.20 22.88 7.58Q22.62 7.96 22.37 8.77Q22.13 9.57 21.90 10.82Q21.67 12.06 21.46 13.78L21.46 13.78Q21.40 14.25 20.99 14.53Q20.58 14.81 19.95 14.81L19.95 14.81Q19.52 14.81 19.30 14.64Q19.08 14.46 19.05 14.16L19.05 14.16Q18.95 11.72 18.83 10.14Q18.70 8.57 18.60 7.61Q18.49 6.66 18.42 6.19Q18.35 5.72 18.35 5.50ZM30.26 14.72L30.26 14.72Q30.26 13.70 30.20 12.50Q30.14 11.31 30.05 10.08Q29.96 8.86 29.87 7.69Q29.77 6.52 29.68 5.54Q29.59 4.57 29.53 3.87Q29.47 3.16 29.47 2.88L29.47 2.88Q29.47 2.41 29.82 2.17Q30.18 1.92 30.84 1.92L30.84 1.92Q31.14 1.92 31.34 1.98Q31.55 2.04 31.68 2.18Q31.80 2.32 31.88 2.55Q31.96 2.78 31.99 3.12L31.99 3.12Q32.04 3.59 32.07 4.12Q32.11 4.65 32.15 5.33Q32.19 6.01 32.24 6.87Q32.29 7.72 32.36 8.84L32.36 8.84Q32.36 9 32.41 9.07Q32.47 9.14 32.54 9.14L32.54 9.14Q32.67 9.14 32.78 8.93L32.78 8.93Q33.77 6.90 34.86 5.83Q35.95 4.76 36.98 4.76L36.98 4.76Q37.59 4.76 37.95 5.12Q38.30 5.48 38.30 6.09L38.30 6.09Q38.30 6.75 38.01 7.31Q37.72 7.86 37.29 8.36Q36.87 8.85 36.37 9.28Q35.87 9.71 35.44 10.13Q35.02 10.54 34.73 10.93Q34.44 11.32 34.44 11.72L34.44 11.72Q34.44 12.08 34.87 12.46Q35.30 12.84 36.11 13.21Q36.91 13.58 38.09 13.93Q39.26 14.27 40.75 14.59L40.75 14.59Q40.98 14.65 41.08 14.78Q41.18 14.91 41.18 15.12L41.18 15.12Q41.18 15.38 41.06 15.65Q40.95 15.93 40.77 16.15Q40.59 16.38 40.38 16.53Q40.16 16.68 39.96 16.68L39.96 16.68Q39.56 16.68 39.01 16.57Q38.46 16.46 37.82 16.28Q37.18 16.10 36.50 15.86Q35.82 15.62 35.19 15.35Q34.55 15.07 33.98 14.77Q33.41 14.47 33 14.18L33 14.18Q32.87 14.11 32.79 14.06Q32.72 14.02 32.66 14.02L32.66 14.02Q32.59 14.02 32.58 14.07Q32.57 14.12 32.57 14.29L32.57 14.29Q32.57 14.70 32.50 14.95Q32.44 15.21 32.29 15.36Q32.13 15.50 31.86 15.56Q31.59 15.62 31.20 15.62L31.20 15.62Q30.67 15.62 30.46 15.42Q30.26 15.22 30.26 14.72ZM47.03 1.42L47.03 1.42Q47.03 0.80 47.38 0.54Q47.73 0.29 48.54 0.29L48.54 0.29Q48.83 0.29 49.04 0.35Q49.24 0.40 49.39 0.54Q49.54 0.68 49.62 0.91Q49.71 1.14 49.77 1.49L49.77 1.49Q49.91 2.58 50.08 3.74Q50.25 4.90 50.44 6.07L50.44 6.07Q50.51 6.60 50.99 6.60L50.99 6.60Q51.12 6.60 51.42 6.57Q51.71 6.54 52.13 6.50Q52.54 6.46 53.01 6.41Q53.48 6.36 53.96 6.32Q54.43 6.28 54.86 6.25Q55.29 6.22 55.62 6.22L55.62 6.22Q55.88 6.22 56.03 6.32Q56.18 6.42 56.27 6.58Q56.36 6.74 56.38 6.93Q56.41 7.13 56.41 7.32L56.41 7.32Q56.41 7.50 56.35 7.69Q56.29 7.88 56.17 8.02Q56.06 8.17 55.90 8.26Q55.73 8.36 55.52 8.36L55.52 8.36Q54.50 8.36 53.47 8.42Q52.43 8.48 51.40 8.59L51.40 8.59Q50.87 8.66 50.87 9.12L50.87 9.12Q50.87 9.15 50.88 9.21Q50.89 9.26 50.89 9.29L50.89 9.29Q51.04 10.31 51.16 11.20Q51.28 12.09 51.37 12.79Q51.46 13.49 51.51 13.95Q51.56 14.41 51.56 14.57L51.56 14.57Q51.56 14.99 51.48 15.28Q51.40 15.56 51.21 15.74Q51.02 15.93 50.71 16.00Q50.40 16.08 49.93 16.08L49.93 16.08Q49.49 16.08 49.28 15.87Q49.07 15.66 49.04 15.22L49.04 15.22Q48.97 13.84 48.82 12.44Q48.67 11.04 48.47 9.64L48.47 9.64Q48.36 9.14 47.94 9.14L47.94 9.14Q47.91 9.14 47.86 9.15Q47.81 9.16 47.78 9.16L47.78 9.16Q47.05 9.33 46.41 9.49Q45.76 9.66 45.20 9.84L45.20 9.84Q44.88 9.95 44.64 9.99Q44.39 10.03 44.19 10.03L44.19 10.03Q43.92 10.03 43.79 9.79Q43.66 9.55 43.66 9.19L43.66 9.19Q43.66 9.06 43.69 8.89Q43.71 8.72 43.78 8.55Q43.84 8.38 43.96 8.23Q44.09 8.09 44.30 7.99L44.30 7.99Q44.79 7.79 45.61 7.58Q46.43 7.36 47.46 7.17L47.46 7.17Q47.70 7.11 47.83 6.98Q47.96 6.84 47.96 6.57L47.96 6.57Q47.96 6.52 47.96 6.45Q47.96 6.39 47.94 6.32L47.94 6.32Q47.75 5.24 47.58 4.35Q47.41 3.47 47.29 2.84Q47.17 2.20 47.10 1.84Q47.03 1.48 47.03 1.42ZM58.20 10.80L58.20 10.80Q58.20 12.38 58.68 13.23Q59.16 14.09 60.07 14.09L60.07 14.09Q60.64 14.09 61.13 13.75Q61.62 13.41 61.97 12.80Q62.32 12.19 62.51 11.35Q62.71 10.51 62.71 9.53L62.71 9.53Q62.71 8.93 62.66 8.49Q62.61 8.05 62.56 7.71Q62.51 7.36 62.46 7.09Q62.41 6.82 62.41 6.57L62.41 6.57Q62.41 6.20 62.73 6.03Q63.05 5.86 63.74 5.86L63.74 5.86Q64.62 5.86 65.10 6.26Q65.59 6.66 65.59 7.42L65.59 7.42Q65.59 9.49 65.19 11.14Q64.78 12.80 64.03 13.95Q63.27 15.11 62.19 15.73Q61.11 16.35 59.78 16.35L59.78 16.35Q58.83 16.35 58.03 15.96Q57.22 15.56 56.64 14.85Q56.06 14.14 55.73 13.17Q55.41 12.19 55.41 11.02L55.41 11.02Q55.41 10.57 55.43 10.07Q55.45 9.56 55.50 8.98Q55.55 8.40 55.62 7.72Q55.70 7.04 55.79 6.25L55.79 6.25Q55.83 5.91 56.12 5.70Q56.40 5.50 56.85 5.50L56.85 5.50Q57.25 5.50 57.60 5.58Q57.95 5.66 58.20 5.80Q58.45 5.94 58.60 6.13Q58.75 6.32 58.75 6.53L58.75 6.53Q58.75 6.74 58.66 7.19Q58.57 7.64 58.47 8.22Q58.37 8.80 58.28 9.47Q58.20 10.15 58.20 10.80ZM73.35 6.19L73.35 6.19Q72.91 6.19 72.59 6.42Q72.26 6.64 72.02 7.05Q71.79 7.45 71.64 8.00Q71.48 8.54 71.39 9.19Q71.30 9.83 71.26 10.54Q71.23 11.24 71.23 11.95L71.23 11.95Q71.23 12.89 71.30 13.80Q71.38 14.71 71.38 15.48L71.38 15.48Q71.38 15.98 71.00 16.27Q70.63 16.56 69.94 16.56L69.94 16.56Q69.81 16.56 69.64 16.54Q69.48 16.51 69.33 16.44Q69.19 16.37 69.08 16.25Q68.96 16.13 68.95 15.91L68.95 15.91Q68.85 14.88 68.65 13.80Q68.45 12.73 68.15 11.65Q67.85 10.58 67.44 9.53Q67.02 8.47 66.48 7.46L66.48 7.46Q66.39 7.29 66.32 7.14Q66.26 6.98 66.26 6.84L66.26 6.84Q66.26 6.67 66.42 6.46Q66.57 6.26 66.81 6.08Q67.05 5.91 67.34 5.79Q67.63 5.68 67.90 5.68L67.90 5.68Q68.34 5.68 68.68 6.30Q69.02 6.91 69.32 8.26L69.32 8.26Q69.38 8.50 69.41 8.59Q69.45 8.68 69.50 8.68L69.50 8.68Q69.63 8.68 69.67 8.29L69.67 8.29Q69.81 7.17 70.15 6.37Q70.49 5.57 71.00 5.04Q71.51 4.52 72.17 4.28Q72.83 4.03 73.63 4.03L73.63 4.03Q74.09 4.03 74.55 4.11Q75.02 4.20 75.40 4.36Q75.77 4.52 76.01 4.76Q76.24 4.99 76.24 5.29L76.24 5.29Q76.24 5.50 76.15 5.78Q76.07 6.07 75.93 6.33Q75.79 6.60 75.60 6.78Q75.42 6.96 75.23 6.96L75.23 6.96Q75.02 6.96 74.82 6.84Q74.63 6.71 74.40 6.57Q74.17 6.43 73.92 6.31Q73.66 6.19 73.35 6.19ZM76.58 1.42L76.58 1.42Q76.58 0.80 76.93 0.54Q77.29 0.29 78.09 0.29L78.09 0.29Q78.39 0.29 78.59 0.35Q78.80 0.40 78.94 0.54Q79.09 0.68 79.18 0.91Q79.27 1.14 79.32 1.49L79.32 1.49Q79.46 2.58 79.63 3.74Q79.80 4.90 79.99 6.07L79.99 6.07Q80.06 6.60 80.54 6.60L80.54 6.60Q80.67 6.60 80.97 6.57Q81.27 6.54 81.68 6.50Q82.09 6.46 82.56 6.41Q83.04 6.36 83.51 6.32Q83.99 6.28 84.42 6.25Q84.84 6.22 85.17 6.22L85.17 6.22Q85.43 6.22 85.58 6.32Q85.73 6.42 85.82 6.58Q85.91 6.74 85.94 6.93Q85.97 7.13 85.97 7.32L85.97 7.32Q85.97 7.50 85.90 7.69Q85.84 7.88 85.73 8.02Q85.62 8.17 85.45 8.26Q85.29 8.36 85.08 8.36L85.08 8.36Q84.06 8.36 83.02 8.42Q81.98 8.48 80.95 8.59L80.95 8.59Q80.43 8.66 80.43 9.12L80.43 9.12Q80.43 9.15 80.44 9.21Q80.45 9.26 80.45 9.29L80.45 9.29Q80.59 10.31 80.71 11.20Q80.84 12.09 80.92 12.79Q81.01 13.49 81.06 13.95Q81.12 14.41 81.12 14.57L81.12 14.57Q81.12 14.99 81.04 15.28Q80.95 15.56 80.77 15.74Q80.58 15.93 80.27 16.00Q79.96 16.08 79.49 16.08L79.49 16.08Q79.04 16.08 78.83 15.87Q78.62 15.66 78.60 15.22L78.60 15.22Q78.53 13.84 78.38 12.44Q78.22 11.04 78.02 9.64L78.02 9.64Q77.92 9.14 77.50 9.14L77.50 9.14Q77.46 9.14 77.41 9.15Q77.37 9.16 77.33 9.16L77.33 9.16Q76.61 9.33 75.96 9.49Q75.32 9.66 74.75 9.84L74.75 9.84Q74.44 9.95 74.19 9.99Q73.95 10.03 73.75 10.03L73.75 10.03Q73.48 10.03 73.35 9.79Q73.22 9.55 73.22 9.19L73.22 9.19Q73.22 9.06 73.24 8.89Q73.27 8.72 73.33 8.55Q73.39 8.38 73.52 8.23Q73.64 8.09 73.85 7.99L73.85 7.99Q74.34 7.79 75.16 7.58Q75.98 7.36 77.02 7.17L77.02 7.17Q77.25 7.11 77.38 6.98Q77.52 6.84 77.52 6.57L77.52 6.57Q77.52 6.52 77.52 6.45Q77.52 6.39 77.50 6.32L77.50 6.32Q77.31 5.24 77.14 4.35Q76.97 3.47 76.85 2.84Q76.72 2.20 76.65 1.84Q76.58 1.48 76.58 1.42ZM84.66 1.61L84.66 1.61Q84.66 1.00 85.01 0.74Q85.36 0.48 86.17 0.48L86.17 0.48Q86.45 0.48 86.66 0.54Q86.87 0.60 87.01 0.73Q87.15 0.87 87.24 1.10Q87.33 1.32 87.39 1.68L87.39 1.68Q87.54 2.72 87.70 3.86Q87.86 5.00 88.00 6.13Q88.15 7.27 88.28 8.34Q88.41 9.41 88.51 10.33Q88.61 11.25 88.66 11.96Q88.71 12.67 88.71 13.08L88.71 13.08Q88.71 13.50 88.63 13.79Q88.56 14.09 88.38 14.26Q88.20 14.44 87.91 14.51Q87.62 14.59 87.20 14.59L87.20 14.59Q86.79 14.59 86.55 14.38Q86.31 14.17 86.31 13.73L86.31 13.73Q86.31 13.29 86.24 12.54Q86.17 11.80 86.05 10.89Q85.93 9.97 85.79 8.94Q85.64 7.91 85.48 6.90Q85.32 5.89 85.18 4.96Q85.03 4.03 84.91 3.31Q84.80 2.59 84.73 2.13Q84.66 1.66 84.66 1.61ZM100.55 12.39L100.55 12.39Q100.89 12.09 101.21 12.09L101.21 12.09Q101.40 12.09 101.55 12.19Q101.71 12.28 101.89 12.48L101.89 12.48Q102.07 12.75 102.15 12.92Q102.22 13.09 102.22 13.25L102.22 13.25Q102.22 13.61 101.87 13.92L101.87 13.92Q101.31 14.39 100.65 14.76Q100.00 15.13 99.28 15.39Q98.57 15.64 97.80 15.78Q97.04 15.91 96.29 15.91L96.29 15.91Q95.34 15.91 94.51 15.67Q93.68 15.43 93.03 14.99Q92.38 14.54 91.93 13.92Q91.49 13.29 91.30 12.50L91.30 12.50Q91.20 12.18 91.11 12.08Q91.02 11.98 90.82 11.98L90.82 11.98Q90.39 11.98 90.15 11.77Q89.92 11.55 89.92 11.16L89.92 11.16Q89.92 10.99 89.94 10.95L89.94 10.95L89.96 10.71Q90.02 10.29 90.19 10.10Q90.36 9.91 90.73 9.91L90.73 9.91L90.90 9.91Q91.39 9.91 91.59 9.46L91.59 9.46Q91.96 8.65 92.52 7.98Q93.08 7.31 93.79 6.84Q94.49 6.36 95.29 6.10Q96.09 5.84 96.93 5.84L96.93 5.84Q97.79 5.84 98.55 6.09Q99.30 6.34 99.87 6.79Q100.43 7.23 100.75 7.83Q101.07 8.43 101.07 9.12L101.07 9.12Q101.07 9.60 100.89 10.00Q100.70 10.39 100.35 10.69Q100.00 10.99 99.50 11.18Q99 11.37 98.37 11.43L98.37 11.43L94.30 11.84Q94.07 11.84 93.92 11.95Q93.77 12.07 93.77 12.27L93.77 12.27Q93.77 12.57 94.00 12.86Q94.23 13.14 94.61 13.35Q94.99 13.57 95.49 13.70Q95.99 13.83 96.52 13.83L96.52 13.83Q97.02 13.83 97.55 13.73Q98.09 13.63 98.61 13.44Q99.13 13.25 99.62 12.99Q100.11 12.73 100.55 12.39ZM97.93 9.36L97.93 9.36Q98.11 9.33 98.24 9.19Q98.37 9.06 98.37 8.86L98.37 8.86Q98.37 8.68 98.24 8.53Q98.11 8.38 97.89 8.26Q97.66 8.13 97.37 8.06Q97.08 7.99 96.75 7.99L96.75 7.99Q96.27 7.99 95.77 8.13Q95.26 8.27 94.85 8.50Q94.44 8.73 94.18 9.01Q93.93 9.28 93.93 9.55L93.93 9.55Q93.93 9.82 94.25 9.82L94.25 9.82Q94.45 9.82 94.90 9.77Q95.34 9.73 95.88 9.66Q96.42 9.60 96.97 9.52Q97.52 9.43 97.93 9.36ZM112.78 5.29L112.78 5.29Q113.39 5.29 113.96 5.46Q114.54 5.64 114.98 5.94Q115.42 6.23 115.69 6.62Q115.96 7.00 115.96 7.39L115.96 7.39Q115.96 7.65 115.85 7.89Q115.75 8.13 115.57 8.31Q115.39 8.50 115.17 8.61Q114.95 8.72 114.70 8.72L114.70 8.72Q114.43 8.72 114.21 8.51Q113.99 8.31 113.74 8.06Q113.48 7.80 113.17 7.60Q112.86 7.39 112.43 7.39L112.43 7.39Q112.01 7.39 111.67 7.59Q111.33 7.79 111.10 8.15Q110.87 8.51 110.75 8.99Q110.63 9.48 110.63 10.05L110.63 10.05Q110.63 11.70 111.25 12.56Q111.87 13.42 113.03 13.42L113.03 13.42Q113.58 13.42 113.97 13.24Q114.36 13.07 114.66 12.86Q114.96 12.64 115.21 12.47Q115.45 12.29 115.71 12.29L115.71 12.29Q115.85 12.29 115.99 12.38Q116.13 12.47 116.24 12.60Q116.36 12.74 116.43 12.90Q116.51 13.07 116.51 13.23L116.51 13.23Q116.51 13.62 116.13 14.03Q115.75 14.44 115.15 14.77Q114.55 15.11 113.82 15.32Q113.09 15.53 112.39 15.53L112.39 15.53Q111.47 15.53 110.70 15.17Q109.92 14.81 109.36 14.17Q108.80 13.54 108.49 12.64Q108.18 11.75 108.18 10.68L108.18 10.68Q108.18 9.50 108.52 8.52Q108.87 7.54 109.48 6.81Q110.10 6.09 110.94 5.69Q111.79 5.29 112.78 5.29ZM116.17 1.61L116.17 1.61Q116.17 1.00 116.52 0.74Q116.87 0.48 117.68 0.48L117.68 0.48Q117.96 0.48 118.17 0.54Q118.38 0.60 118.52 0.73Q118.66 0.87 118.75 1.10Q118.84 1.32 118.90 1.68L118.90 1.68Q119.05 2.72 119.21 3.86Q119.37 5.00 119.51 6.13Q119.66 7.27 119.79 8.34Q119.92 9.41 120.02 10.33Q120.12 11.25 120.17 11.96Q120.22 12.67 120.22 13.08L120.22 13.08Q120.22 13.50 120.15 13.79Q120.07 14.09 119.89 14.26Q119.71 14.44 119.42 14.51Q119.13 14.59 118.71 14.59L118.71 14.59Q118.30 14.59 118.06 14.38Q117.82 14.17 117.82 13.73L117.82 13.73Q117.82 13.29 117.75 12.54Q117.68 11.80 117.56 10.89Q117.45 9.97 117.30 8.94Q117.15 7.91 116.99 6.90Q116.84 5.89 116.69 4.96Q116.54 4.03 116.43 3.31Q116.31 2.59 116.24 2.13Q116.17 1.66 116.17 1.61ZM124.55 10.80L124.55 10.80Q124.55 12.38 125.03 13.23Q125.51 14.09 126.42 14.09L126.42 14.09Q127.00 14.09 127.48 13.75Q127.97 13.41 128.32 12.80Q128.67 12.19 128.87 11.35Q129.06 10.51 129.06 9.53L129.06 9.53Q129.06 8.93 129.01 8.49Q128.96 8.05 128.91 7.71Q128.86 7.36 128.81 7.09Q128.77 6.82 128.77 6.57L128.77 6.57Q128.77 6.20 129.08 6.03Q129.40 5.86 130.09 5.86L130.09 5.86Q130.97 5.86 131.46 6.26Q131.94 6.66 131.94 7.42L131.94 7.42Q131.94 9.49 131.54 11.14Q131.13 12.80 130.38 13.95Q129.62 15.11 128.54 15.73Q127.46 16.35 126.13 16.35L126.13 16.35Q125.18 16.35 124.38 15.96Q123.57 15.56 122.99 14.85Q122.41 14.14 122.09 13.17Q121.76 12.19 121.76 11.02L121.76 11.02Q121.76 10.57 121.78 10.07Q121.80 9.56 121.85 8.98Q121.90 8.40 121.97 7.72Q122.05 7.04 122.14 6.25L122.14 6.25Q122.18 5.91 122.47 5.70Q122.75 5.50 123.20 5.50L123.20 5.50Q123.60 5.50 123.95 5.58Q124.30 5.66 124.55 5.80Q124.80 5.94 124.95 6.13Q125.10 6.32 125.10 6.53L125.10 6.53Q125.10 6.74 125.01 7.19Q124.92 7.64 124.82 8.22Q124.72 8.80 124.63 9.47Q124.55 10.15 124.55 10.80ZM133.82 12.25L133.82 12.25Q133.59 9.50 133.31 6.80Q133.02 4.09 132.47 1.39L132.47 1.39Q132.45 1.30 132.45 1.22Q132.45 1.15 132.45 1.08L132.45 1.08Q132.45 0.81 132.56 0.61Q132.67 0.41 132.86 0.28Q133.04 0.14 133.28 0.07Q133.52 0 133.79 0L133.79 0Q134.51 0 134.78 0.67L134.78 0.67Q134.89 1.01 135.02 1.64Q135.14 2.27 135.28 3.11Q135.41 3.94 135.54 4.93Q135.67 5.92 135.79 6.96L135.79 6.96Q135.82 7.25 135.97 7.25L135.97 7.25Q136.10 7.25 136.24 7.08L136.24 7.08Q137.95 4.83 140.30 4.83L140.30 4.83Q141.18 4.83 141.94 5.21Q142.70 5.60 143.26 6.27Q143.82 6.94 144.15 7.85Q144.47 8.77 144.47 9.82L144.47 9.82Q144.47 10.80 144.16 11.65Q143.85 12.49 143.30 13.10Q142.75 13.71 141.99 14.06Q141.23 14.40 140.34 14.40L140.34 14.40Q139.24 14.40 138.19 13.97Q137.13 13.55 136.20 12.82L136.20 12.82Q136.09 12.73 135.97 12.73L135.97 12.73Q135.82 12.73 135.69 12.89L135.69 12.89Q135.50 13.10 135.29 13.17Q135.08 13.23 134.78 13.23L134.78 13.23Q133.85 13.23 133.82 12.25ZM139.89 7.01L139.89 7.01Q139.42 7.01 138.96 7.22Q138.49 7.44 138.08 7.84Q137.67 8.24 137.33 8.79Q136.98 9.35 136.75 10.03L136.75 10.03Q136.72 10.07 136.71 10.14Q136.70 10.21 136.70 10.25L136.70 10.25Q136.70 10.45 136.84 10.56L136.84 10.56Q137.26 10.92 137.71 11.24Q138.16 11.55 138.61 11.79Q139.05 12.02 139.49 12.16Q139.92 12.29 140.30 12.29L140.30 12.29Q141.14 12.29 141.58 11.80Q142.02 11.31 142.02 10.37L142.02 10.37Q142.02 9.64 141.86 9.03Q141.69 8.41 141.41 7.96Q141.13 7.51 140.74 7.26Q140.34 7.01 139.89 7.01Z" transform="translate(36, 6.598)"></path></svg>